# xmcd
#
# Track frame offsets: 
#        150
#        13173
#        29715
#        49677
#        58947
#        65069
#        78262
#        89750
#        104988
#        117796
#        123528
#        137420
#        152621
#
# Disc length: 2109 seconds
#
# Revision: 0
# Processed by: cddbd v1.5.2PL0 Copyright (c) Steve Scherf et al.
# Submitted via: ExactAudioCopyFreeDBPlugin 1.0
#
DISCID=bd083b0d
DTITLE=Lonesome Wyatt and the Holy Spooks - Ghost Ballads
DYEAR=2013
DGENRE=Country
TTITLE0=The Golden Rule
TTITLE1=Curse Of The Poltergeists
TTITLE2=Terror On The Ghost Ship
TTITLE3=Dream Of You
TTITLE4=Skin And Bones
TTITLE5=Boy With No Shadow
TTITLE6=October 1347
TTITLE7=The Mouldering One Returns
TTITLE8=Midsummer Fair
TTITLE9=Haunted Jamboree
TTITLE10=Death Of Me
TTITLE11=You Cannot Be Saved From The Grave
TTITLE12=Bone Orchard Rise
EXTD=
EXTT0=
EXTT1=
EXTT2=
EXTT3=
EXTT4=
EXTT5=
EXTT6=
EXTT7=
EXTT8=
EXTT9=
EXTT10=
EXTT11=
EXTT12=
PLAYORDER=
